<svg width="30" height="30" viewBox="0 0 30 30" fill="none" xmlns="http://www.w3.org/2000/svg">
<g id="arrow-left">
<path id="Vector" fill-rule="evenodd" clip-rule="evenodd" d="M28.1252 15.0002C28.1252 14.7516 28.0264 14.5131 27.8506 14.3373C27.6748 14.1615 27.4364 14.0627 27.1877 14.0627H5.07584L10.9765 8.16396C11.0636 8.07679 11.1328 7.97331 11.1799 7.85943C11.2271 7.74554 11.2514 7.62348 11.2514 7.50021C11.2514 7.37694 11.2271 7.25488 11.1799 7.14099C11.1328 7.0271 11.0636 6.92362 10.9765 6.83646C10.8893 6.74929 10.7858 6.68015 10.6719 6.63298C10.558 6.5858 10.436 6.56152 10.3127 6.56152C10.1894 6.56152 10.0674 6.5858 9.95349 6.63298C9.83961 6.68015 9.73613 6.74929 9.64896 6.83646L2.14896 14.3365C2.06165 14.4235 1.99239 14.527 1.94512 14.6409C1.89786 14.7548 1.87354 14.8769 1.87354 15.0002C1.87354 15.1235 1.89786 15.2456 1.94512 15.3595C1.99239 15.4734 2.06165 15.5769 2.14896 15.664L9.64896 23.164C9.73613 23.2511 9.83961 23.3203 9.95349 23.3674C10.0674 23.4146 10.1894 23.4389 10.3127 23.4389C10.436 23.4389 10.558 23.4146 10.6719 23.3674C10.7858 23.3203 10.8893 23.2511 10.9765 23.164C11.0636 23.0768 11.1328 22.9733 11.1799 22.8594C11.2271 22.7455 11.2514 22.6235 11.2514 22.5002C11.2514 22.3769 11.2271 22.2549 11.1799 22.141C11.1328 22.0271 11.0636 21.9236 10.9765 21.8365L5.07584 15.9377H27.1877C27.4364 15.9377 27.6748 15.8389 27.8506 15.6631C28.0264 15.4873 28.1252 15.2488 28.1252 15.0002Z" fill="#3F3F3F"/>
</g>
</svg>
