<svg width="115" height="114" viewBox="0 0 115 114" fill="none" xmlns="http://www.w3.org/2000/svg">
<g id="check-circle" clip-path="url(#clip0_163_6371)">
<g id="Vector">
<path d="M57.5 106.875C44.2723 106.875 31.5864 101.62 22.233 92.2669C12.8797 82.9136 7.625 70.2277 7.625 57C7.625 43.7723 12.8797 31.0864 22.233 21.733C31.5864 12.3797 44.2723 7.125 57.5 7.125C70.7277 7.125 83.4136 12.3797 92.7669 21.733C102.12 31.0864 107.375 43.7723 107.375 57C107.375 70.2277 102.12 82.9136 92.7669 92.2669C83.4136 101.62 70.7277 106.875 57.5 106.875ZM57.5 114C72.6173 114 87.1155 107.995 97.8051 97.3051C108.495 86.6155 114.5 72.1173 114.5 57C114.5 41.8827 108.495 27.3845 97.8051 16.6949C87.1155 6.00534 72.6173 0 57.5 0C42.3827 0 27.8845 6.00534 17.1949 16.6949C6.50534 27.3845 0.5 41.8827 0.5 57C0.5 72.1173 6.50534 86.6155 17.1949 97.3051C27.8845 107.995 42.3827 114 57.5 114Z" fill="#28BBAD"/>
<path d="M78.6613 35.4112C78.6105 35.4604 78.5629 35.5128 78.5187 35.568L53.7736 67.0961L38.861 52.1764C37.848 51.2325 36.5082 50.7186 35.1238 50.743C33.7394 50.7674 32.4185 51.3283 31.4394 52.3073C30.4604 53.2864 29.8996 54.6073 29.8751 55.9917C29.8507 57.376 30.3646 58.7159 31.3085 59.7289L50.1612 78.5887C50.6691 79.0957 51.2739 79.4952 51.9395 79.7633C52.6052 80.0315 53.318 80.1628 54.0354 80.1495C54.7529 80.1362 55.4604 79.9786 56.1156 79.6859C56.7708 79.3933 57.3604 78.9717 57.8491 78.4463L86.2921 42.8925C87.2606 41.876 87.7902 40.5191 87.7662 39.1153C87.7423 37.7115 87.1668 36.3735 86.1643 35.3905C85.1617 34.4076 83.8125 33.8588 82.4085 33.8626C81.0045 33.8665 79.6584 34.4228 78.6613 35.4112Z" fill="#28BBAD"/>
</g>
</g>
<defs>
<clipPath id="clip0_163_6371">
<rect width="114" height="114" fill="white" transform="translate(0.5)"/>
</clipPath>
</defs>
</svg>
