<svg width="120" height="30" viewBox="0 0 120 30" fill="none" xmlns="http://www.w3.org/2000/svg">
<path d="M3.44092 27.8248H29.0909V2.1748H3.44092V27.8248ZM24.1539 12.5318H18.7339V7.1118H24.1539V12.5318ZM8.37692 7.1118H13.7999V17.4678H24.1539V22.8878H8.37692V7.1118ZM45.7939 2.1748C43.2573 2.1748 40.7777 2.92698 38.6687 4.33621C36.5596 5.74544 34.9158 7.74844 33.9451 10.0919C32.9744 12.4354 32.7205 15.014 33.2153 17.5018C33.7102 19.9896 34.9316 22.2748 36.7252 24.0684C38.5188 25.8621 40.804 27.0835 43.2918 27.5784C45.7797 28.0732 48.3583 27.8193 50.7018 26.8486C53.0453 25.8779 55.0482 24.2341 56.4575 22.125C57.8667 20.0159 58.6189 17.5363 58.6189 14.9998C58.6149 11.5996 57.2624 8.33984 54.8581 5.93555C52.4538 3.53125 49.1941 2.17877 45.7939 2.1748ZM45.7939 22.8878C44.2338 22.8878 42.7087 22.4252 41.4115 21.5584C40.1144 20.6917 39.1033 19.4598 38.5063 18.0184C37.9093 16.5771 37.7531 14.9911 38.0574 13.4609C38.3618 11.9308 39.1131 10.5253 40.2162 9.42215C41.3194 8.319 42.7249 7.56773 44.255 7.26337C45.7851 6.95901 47.3711 7.11523 48.8125 7.71224C50.2538 8.30926 51.4858 9.32029 52.3525 10.6175C53.2193 11.9146 53.6819 13.4397 53.6819 14.9998C53.6787 17.0909 52.8466 19.0954 51.368 20.574C49.8894 22.0526 47.8849 22.8846 45.7939 22.8878ZM104.513 2.1748C101.976 2.17461 99.4966 2.92661 97.3874 4.33572C95.2782 5.74483 93.6343 7.74776 92.6634 10.0912C91.6926 12.4346 91.4384 15.0134 91.9332 17.5012C92.4279 19.9891 93.6493 22.2744 95.4429 24.0681C97.2364 25.8618 99.5216 27.0834 102.01 27.5783C104.497 28.0732 107.076 27.8193 109.42 26.8487C111.763 25.878 113.766 24.2342 115.175 22.1251C116.585 20.016 117.337 17.5364 117.337 14.9998C117.333 11.5998 115.981 8.34016 113.577 5.9359C111.173 3.53163 107.913 2.17904 104.513 2.1748ZM104.513 22.8878C102.953 22.888 101.428 22.4255 100.13 21.5589C98.833 20.6923 97.8218 19.4604 97.2246 18.0191C96.6274 16.5778 96.4711 14.9917 96.7753 13.4615C97.0796 11.9314 97.8308 10.5258 98.9339 9.4225C100.037 8.31924 101.443 7.56788 102.973 7.26344C104.503 6.959 106.089 7.11515 107.53 7.71215C108.972 8.30914 110.204 9.32016 111.071 10.6174C111.937 11.9146 112.4 13.4397 112.4 14.9998C112.397 17.0907 111.565 19.095 110.086 20.5736C108.608 22.0522 106.604 22.8844 104.513 22.8878ZM75.1529 2.1748C72.6163 2.1748 70.1367 2.92698 68.0277 4.33621C65.9186 5.74544 64.2748 7.74844 63.3041 10.0919C62.3334 12.4354 62.0795 15.014 62.5743 17.5018C63.0692 19.9896 64.2906 22.2748 66.0842 24.0684C67.8778 25.8621 70.163 27.0835 72.6508 27.5784C75.1386 28.0732 77.7173 27.8193 80.0608 26.8486C82.4043 25.8779 84.4072 24.2341 85.8165 22.125C87.2257 20.0159 87.9779 17.5363 87.9779 14.9998C87.9739 11.5996 86.6214 8.33984 84.2171 5.93555C81.8128 3.53125 78.5531 2.17877 75.1529 2.1748ZM75.1529 22.8878C73.6993 22.8885 72.2739 22.4876 71.0338 21.7293C69.7938 20.971 68.7873 19.8849 68.1256 18.5907C67.464 17.2965 67.1727 15.8446 67.2841 14.3954C67.3955 12.9461 67.9051 11.5558 68.7568 10.3779C69.6085 9.20006 70.7691 8.28041 72.1104 7.72051C73.4518 7.1606 74.9218 6.98222 76.3581 7.20504C77.7945 7.42787 79.1413 8.04324 80.25 8.98323C81.3587 9.92321 82.1861 11.1513 82.6409 12.5318H75.1529V17.4678H82.6409C82.12 19.0431 81.1164 20.4145 79.7723 21.3873C78.4283 22.3602 76.8121 22.8851 75.1529 22.8878Z" fill="#28BBAD"/>
</svg>
