<svg width="16" height="17" viewBox="0 0 16 17" fill="none" xmlns="http://www.w3.org/2000/svg">
<g id="trash3" clip-path="url(#clip0_140_1715)">
<path id="Vector" d="M6.5 1.5H9.5C9.63261 1.5 9.75979 1.55268 9.85355 1.64645C9.94732 1.74021 10 1.86739 10 2V3H6V2C6 1.86739 6.05268 1.74021 6.14645 1.64645C6.24021 1.55268 6.36739 1.5 6.5 1.5ZM11 3V2C11 1.60218 10.842 1.22064 10.5607 0.93934C10.2794 0.658035 9.89782 0.5 9.5 0.5L6.5 0.5C6.10218 0.5 5.72064 0.658035 5.43934 0.93934C5.15804 1.22064 5 1.60218 5 2V3H2.506C2.50267 2.99997 2.49933 2.99997 2.496 3H1.5C1.36739 3 1.24021 3.05268 1.14645 3.14645C1.05268 3.24021 1 3.36739 1 3.5C1 3.63261 1.05268 3.75979 1.14645 3.85355C1.24021 3.94732 1.36739 4 1.5 4H2.038L2.891 14.66C2.93122 15.1612 3.15875 15.6289 3.52827 15.9698C3.8978 16.3108 4.38219 16.5001 4.885 16.5H11.115C11.6178 16.5001 12.1022 16.3108 12.4717 15.9698C12.8412 15.6289 13.0688 15.1612 13.109 14.66L13.962 4H14.5C14.6326 4 14.7598 3.94732 14.8536 3.85355C14.9473 3.75979 15 3.63261 15 3.5C15 3.36739 14.9473 3.24021 14.8536 3.14645C14.7598 3.05268 14.6326 3 14.5 3H13.505C13.5017 2.99997 13.4983 2.99997 13.495 3H11ZM12.958 4L12.112 14.58C12.0919 14.8306 11.9781 15.0644 11.7934 15.2349C11.6086 15.4054 11.3664 15.5001 11.115 15.5H4.885C4.6336 15.5001 4.3914 15.4054 4.20664 15.2349C4.02188 15.0644 3.90811 14.8306 3.888 14.58L3.042 4H12.958ZM5.471 5C5.60333 4.99235 5.73329 5.03756 5.8323 5.1257C5.93131 5.21383 5.99127 5.33767 5.999 5.47L6.499 13.97C6.50425 14.1008 6.45802 14.2284 6.37022 14.3255C6.28242 14.4225 6.16006 14.4813 6.02941 14.4892C5.89876 14.497 5.77024 14.4533 5.67144 14.3675C5.57265 14.2816 5.51145 14.1605 5.501 14.03L5 5.53C4.99594 5.46431 5.00489 5.39847 5.02633 5.33625C5.04777 5.27403 5.08129 5.21665 5.12495 5.16741C5.16862 5.11817 5.22158 5.07804 5.28079 5.04931C5.34 5.02058 5.4043 5.00382 5.47 5H5.471ZM10.529 5C10.5947 5.00382 10.659 5.02058 10.7182 5.04931C10.7774 5.07804 10.8304 5.11817 10.874 5.16741C10.9177 5.21665 10.9512 5.27403 10.9727 5.33625C10.9941 5.39847 11.0031 5.46431 10.999 5.53L10.499 14.03C10.4963 14.0964 10.4804 14.1617 10.4522 14.2219C10.424 14.2821 10.3841 14.3361 10.3348 14.3807C10.2855 14.4254 10.2278 14.4597 10.165 14.4817C10.1023 14.5037 10.0358 14.513 9.9694 14.509C9.90302 14.505 9.8381 14.4878 9.77845 14.4585C9.7188 14.4291 9.6656 14.3881 9.62199 14.3379C9.57837 14.2877 9.5452 14.2293 9.52443 14.1661C9.50365 14.103 9.49569 14.0363 9.501 13.97L10.001 5.47C10.0087 5.33767 10.0687 5.21383 10.1677 5.1257C10.2667 5.03756 10.3967 4.99235 10.529 5ZM8 5C8.13261 5 8.25979 5.05268 8.35355 5.14645C8.44732 5.24021 8.5 5.36739 8.5 5.5V14C8.5 14.1326 8.44732 14.2598 8.35355 14.3536C8.25979 14.4473 8.13261 14.5 8 14.5C7.86739 14.5 7.74021 14.4473 7.64645 14.3536C7.55268 14.2598 7.5 14.1326 7.5 14V5.5C7.5 5.36739 7.55268 5.24021 7.64645 5.14645C7.74021 5.05268 7.86739 5 8 5Z" fill="#7C797A"/>
</g>
<defs>
<clipPath id="clip0_140_1715">
<rect width="16" height="16" fill="white" transform="translate(0 0.5)"/>
</clipPath>
</defs>
</svg>
