<svg width="78" height="13" viewBox="0 0 78 13" fill="none" xmlns="http://www.w3.org/2000/svg">
<path opacity="0.35" fill-rule="evenodd" clip-rule="evenodd" d="M59.0858 11.9449H54C52.3736 11.9449 51.0551 10.6264 51.0551 9V4C51.0551 2.37357 52.3736 1.05509 54 1.05509H61.5722L62.4309 2.19188e-10H54C51.7909 2.19188e-10 50 1.79086 50 4V9C50 11.2091 51.7909 13 54 13H59.0406C58.9145 12.6048 58.9817 12.2299 59.0858 11.9449ZM60.1538 11.9449L60.0891 12.1172L60.0274 12.2816C59.9675 12.4426 59.9563 12.5812 59.9937 12.6972C60.0349 12.8133 60.1041 12.8975 60.2015 12.9499C60.2988 13.0024 60.4074 13.0136 60.5272 12.9836C60.6508 12.9537 60.765 12.8732 60.8698 12.7422L61.5192 11.9449H60.1538ZM62.8089 11.9449H71C72.6264 11.9449 73.9449 10.6264 73.9449 9V4C73.9449 2.37357 72.6264 1.05509 71 1.05509H65.2915C65.3969 0.777862 65.4713 0.39963 65.3388 2.19188e-10H71C73.2091 2.19188e-10 75 1.79086 75 4V9C75 11.2091 73.2091 13 71 13H61.9495L62.8089 11.9449ZM63.9843 0C64.0558 0.000432651 64.1221 0.0171077 64.1832 0.0500277C64.2806 0.102438 64.348 0.186678 64.3854 0.302748C64.4266 0.415068 64.4154 0.551718 64.3517 0.712718L64.2236 1.05509H62.8615L63.5149 0.252198C63.6198 0.124908 63.7321 0.0462777 63.8519 0.0163277C63.8958 0.00568748 63.938 0.000244754 63.9786 0H63.9843ZM63.4236 0.340127C63.4235 0.340399 63.4233 0.340955 63.423 0.341808L63.4236 0.340127Z" fill="#3F3F3F"/>
<path fill-rule="evenodd" clip-rule="evenodd" d="M57.438 8.24752L57.4464 8.25562L57.4549 8.26342C57.7429 8.52632 58.0973 8.64282 58.4493 8.64282H60.3249L59.4403 11H54C52.8954 11 52 10.1046 52 9V4C52 2.89543 52.8954 2 54 2H60.8032L57.3896 6.19448C57.184 6.44391 57 6.78979 57 7.21604C57 7.60121 57.1466 7.96886 57.438 8.24752ZM62.0925 2H63.8701L62.6164 5.35153H65.9298C66.0608 5.35153 66.1675 5.39271 66.2499 5.47508C66.336 5.5537 66.3791 5.65479 66.3791 5.77834C66.3791 5.90938 66.3267 6.04042 66.2218 6.17146L62.2889 11H60.5084L61.7684 7.64285H58.4493C58.322 7.64285 58.2153 7.60354 58.1292 7.52492C58.0431 7.44255 58 7.33959 58 7.21604C58 7.08874 58.0543 6.95957 58.1629 6.82853L62.0925 2ZM63.5786 11L66.9972 6.80303L67.0027 6.79616C67.2089 6.53831 67.379 6.19364 67.379 5.77834C67.379 5.39971 67.2367 5.03077 66.9408 4.75207C66.6494 4.46953 66.2833 4.35153 65.9298 4.35153H64.0581L64.9378 2H66C67.1046 2 68 2.89543 68 4V9C68 10.1046 67.1046 11 66 11H63.5786Z" fill="#34C759"/>
<path opacity="0.4" d="M76 5V9.22034C76.8491 8.86291 77.4012 8.0314 77.4012 7.11017C77.4012 6.18894 76.8491 5.35744 76 5Z" fill="#3F3F3F"/>
<path d="M58 7.21604C58 7.33959 58.0431 7.44255 58.1292 7.52492C58.2153 7.60354 58.322 7.64286 58.4493 7.64286H61.7683L60.0274 12.2817C59.9675 12.4427 59.9562 12.5812 59.9937 12.6972C60.0349 12.8133 60.1041 12.8976 60.2015 12.95C60.2988 13.0024 60.4074 13.0136 60.5272 12.9837C60.6507 12.9537 60.7649 12.8732 60.8698 12.7422L66.2218 6.17147C66.3266 6.04043 66.3791 5.90939 66.3791 5.77835C66.3791 5.65479 66.336 5.55371 66.2499 5.47508C66.1675 5.39271 66.0608 5.35153 65.9298 5.35153H62.6163L64.3517 0.712721C64.4153 0.551729 64.4266 0.415073 64.3854 0.302753C64.3479 0.186689 64.2806 0.102449 64.1832 0.0500334C64.0859 -0.00238254 63.9754 -0.0136145 63.8519 0.0163374C63.7321 0.0462894 63.6197 0.124913 63.5149 0.252209L58.1629 6.82854C58.0543 6.95958 58 7.08874 58 7.21604Z" fill="white"/>
<path fill-rule="evenodd" clip-rule="evenodd" d="M34.5005 3.58753C36.967 3.58764 39.3393 4.55505 41.1269 6.28982C41.2615 6.42375 41.4766 6.42206 41.6092 6.28603L42.896 4.96045C42.9631 4.89146 43.0006 4.798 43 4.70076C42.9994 4.60353 42.9609 4.51052 42.893 4.44234C38.2011 -0.147446 30.7991 -0.147446 26.1072 4.44234C26.0392 4.51047 26.0006 4.60345 26 4.70069C25.9994 4.79792 26.0367 4.89141 26.1038 4.96045L27.391 6.28603C27.5235 6.42226 27.7388 6.42396 27.8733 6.28982C29.6612 4.55494 32.0337 3.58752 34.5005 3.58753ZM34.5359 7.58938C35.8911 7.58929 37.198 8.10346 38.2025 9.03199C38.3384 9.16376 38.5524 9.16091 38.6849 9.02555L39.9702 7.69997C40.0379 7.63044 40.0754 7.53611 40.0744 7.4381C40.0735 7.34008 40.034 7.24656 39.965 7.17844C36.9059 4.27385 32.1685 4.27385 29.1094 7.17844C29.0403 7.24656 29.0009 7.34013 29 7.43817C28.9991 7.53622 29.0368 7.63054 29.1046 7.69997L30.3895 9.02555C30.522 9.16091 30.736 9.16376 30.8719 9.03199C31.8758 8.10408 33.1816 7.58995 34.5359 7.58938ZM37.1496 10.1767C37.1515 10.275 37.1137 10.3698 37.0449 10.4386L34.8217 12.7289C34.7565 12.7962 34.6676 12.834 34.5749 12.834C34.4822 12.834 34.3933 12.7962 34.3282 12.7289L32.1045 10.4386C32.0358 10.3697 31.998 10.2749 32.0001 10.1766C32.0021 10.0783 32.0438 9.98527 32.1153 9.91938C33.5351 8.69354 35.6147 8.69354 37.0345 9.91938C37.106 9.98532 37.1476 10.0784 37.1496 10.1767Z" fill="black"/>
<path d="M10 4C10 3.44772 10.4477 3 11 3H12C12.5523 3 13 3.44772 13 4V12C13 12.5523 12.5523 13 12 13H11C10.4477 13 10 12.5523 10 12V4Z" fill="black"/>
<path d="M15 2C15 1.44772 15.4477 1 16 1H17C17.5523 1 18 1.44772 18 2V12C18 12.5523 17.5523 13 17 13H16C15.4477 13 15 12.5523 15 12V2Z" fill="black"/>
<path d="M5 7.5C5 6.94772 5.44772 6.5 6 6.5H7C7.55228 6.5 8 6.94772 8 7.5V12C8 12.5523 7.55228 13 7 13H6C5.44772 13 5 12.5523 5 12V7.5Z" fill="black"/>
<path d="M0 10C0 9.44772 0.447715 9 1 9H2C2.55228 9 3 9.44772 3 10V12C3 12.5523 2.55228 13 2 13H1C0.447715 13 0 12.5523 0 12V10Z" fill="black"/>
</svg>
